<svg id="svg" version="1.1" xmlns="http://www.w3.org/2000/svg" xmlns:xlink="http://www.w3.org/1999/xlink" width="400" height="400" viewBox="0, 0, 400,400"><g id="svgg"><path id="path0" d="M331.419 1.500 C 328.389 22.397,309.504 35.754,274.143 42.010 C 269.114 42.899,261.760 44.248,257.800 45.008 C 253.840 45.768,247.297 46.943,243.259 47.618 C 231.059 49.660,226.610 50.999,220.630 54.428 C 217.698 56.109,216.359 56.607,213.035 57.251 C 172.773 65.055,138.733 81.395,125.181 99.425 C 123.640 101.475,122.069 103.248,121.690 103.365 C 121.310 103.482,116.500 104.577,111.000 105.799 C 105.500 107.020,98.030 108.813,94.400 109.783 C 90.770 110.753,85.280 112.203,82.200 113.004 C 73.953 115.150,47.681 122.900,44.703 124.065 C 43.466 124.549,43.612 124.130,41.187 134.200 C 28.043 188.780,31.350 247.401,50.109 292.400 C 69.866 339.789,113.932 382.072,160.526 398.349 C 164.948 399.894,165.533 400.000,169.612 400.000 L 173.972 400.000 184.486 394.656 C 220.976 376.109,255.178 351.183,279.048 325.740 C 281.598 323.023,283.897 320.800,284.159 320.800 C 287.260 320.800,301.112 311.732,307.034 305.824 C 315.149 297.730,317.841 291.890,322.223 272.872 C 323.669 266.598,323.851 266.122,326.884 260.672 C 347.180 224.205,360.602 182.103,364.970 141.200 C 366.623 125.728,367.456 94.242,366.240 93.233 C 365.197 92.367,328.302 88.400,321.295 88.400 C 319.704 88.400,319.159 88.206,318.370 87.360 C 317.230 86.137,316.628 86.737,323.600 82.152 C 334.279 75.129,341.967 67.051,345.988 58.625 C 353.178 43.560,349.498 21.182,336.726 2.300 C 334.656 -0.761,331.809 -1.190,331.419 1.500 M335.346 27.100 C 340.668 50.631,333.727 64.120,309.731 76.878 C 296.410 83.960,295.295 87.664,305.023 92.523 C 314.543 97.277,314.538 106.954,305.012 111.207 C 302.064 112.524,300.318 112.951,294.400 113.807 C 281.208 115.713,272.046 119.773,265.754 126.499 C 251.308 141.942,256.022 158.204,275.200 159.089 C 289.421 159.746,300.967 154.450,305.246 145.308 C 307.230 141.069,308.628 142.117,308.573 147.800 C 308.493 155.948,301.077 161.853,282.200 168.797 C 254.425 179.015,246.312 189.625,251.000 209.600 C 253.424 219.928,250.705 228.641,243.644 233.172 C 240.404 235.251,240.166 235.067,240.184 230.500 C 240.200 226.486,239.535 224.027,238.763 225.246 C 238.570 225.551,238.409 226.314,238.406 226.942 C 238.378 232.213,234.365 239.233,229.401 242.698 C 227.540 243.997,228.263 244.051,233.420 243.001 C 254.817 238.644,261.011 229.675,257.247 208.498 C 254.048 190.496,259.134 184.535,284.938 176.043 C 313.558 166.626,318.032 162.158,315.624 145.403 C 314.273 135.994,314.771 132.477,318.040 128.350 C 319.662 126.302,319.437 126.160,315.919 127.010 C 309.779 128.493,302.846 131.364,298.950 134.038 L 297.299 135.170 297.130 138.685 C 296.711 147.395,290.194 152.164,278.000 152.685 L 273.400 152.881 270.818 151.538 C 263.971 147.975,262.657 139.893,267.806 133.000 C 273.319 125.618,283.603 120.891,300.503 117.971 C 313.318 115.756,318.719 111.713,320.463 103.030 C 320.708 101.808,321.152 100.606,321.450 100.359 C 322.529 99.463,353.602 102.630,354.721 103.750 C 355.540 104.568,354.833 126.505,353.624 137.800 C 349.065 180.379,336.801 218.924,315.890 256.400 L 312.430 262.600 310.405 272.067 C 306.618 289.767,302.360 296.829,291.017 304.223 C 281.601 310.361,263.455 316.000,253.123 316.000 C 252.699 316.000,251.009 314.126,248.823 311.230 C 243.329 303.956,243.332 303.946,247.446 315.800 C 251.253 326.772,250.241 325.818,257.020 324.826 C 265.006 323.657,265.006 323.554,257.000 330.923 C 234.696 351.451,207.664 369.921,178.501 384.559 C 168.781 389.437,169.724 389.260,164.118 387.256 C 119.629 371.343,78.403 331.207,60.073 285.963 C 44.967 248.674,40.935 201.469,48.819 154.200 C 50.244 145.660,52.871 134.554,53.648 133.789 C 55.692 131.776,111.274 117.001,128.917 113.781 C 130.242 113.540,130.567 113.243,131.473 111.452 C 139.038 96.493,160.913 83.507,195.266 73.581 C 208.839 69.659,214.433 68.725,210.636 71.015 C 201.291 76.650,195.349 82.311,191.437 89.307 C 186.559 98.030,189.324 101.555,201.600 102.266 C 223.069 103.507,246.652 90.213,232.200 85.015 C 223.326 81.824,220.413 78.976,220.404 73.484 C 220.390 65.322,227.238 61.963,252.400 57.789 C 302.567 49.468,323.844 41.262,332.172 27.023 C 334.116 23.697,334.580 23.709,335.346 27.100 M301.400 55.047 C 292.146 58.309,282.333 60.401,261.200 63.616 C 243.846 66.256,235.070 68.686,233.440 71.300 C 232.702 72.485,233.587 73.269,238.518 75.800 C 253.207 83.339,253.651 92.127,239.821 101.593 C 237.218 103.374,237.951 103.524,241.633 101.964 C 259.725 94.294,260.735 83.456,244.111 75.350 C 233.816 70.329,235.367 69.430,261.952 65.008 C 284.432 61.270,295.531 58.597,303.200 55.076 C 306.012 53.785,305.025 53.769,301.400 55.047 M172.400 93.347 C 152.855 101.985,140.619 112.162,142.981 117.815 C 143.843 119.879,144.707 120.115,152.600 120.445 C 165.049 120.964,169.600 122.878,169.600 127.594 C 169.600 132.408,165.091 135.605,150.757 140.955 C 117.931 153.206,108.360 161.347,106.417 178.670 C 105.901 183.267,106.503 183.394,107.529 178.905 C 111.167 162.985,121.637 154.886,153.723 143.169 C 171.888 136.536,176.400 133.399,176.400 127.403 C 176.400 121.439,172.780 118.858,161.842 117.020 C 158.739 116.499,155.660 115.863,155.001 115.608 C 148.850 113.229,153.581 107.367,171.100 95.659 C 177.329 91.496,177.574 91.060,172.400 93.347 " stroke="none" fill="#fec40d" fill-rule="evenodd"></path><path id="path1" d="M336.493 40.000 C 336.493 40.770,336.575 41.085,336.676 40.700 C 336.776 40.315,336.776 39.685,336.676 39.300 C 336.575 38.915,336.493 39.230,336.493 40.000 M309.504 51.535 C 306.026 52.964,304.253 53.878,304.675 54.026 C 305.454 54.299,300.017 56.557,294.800 58.127 C 286.313 60.680,279.908 62.022,261.952 65.008 C 235.367 69.430,233.816 70.329,244.111 75.350 C 260.724 83.451,259.724 94.295,241.658 101.953 C 238.297 103.378,237.815 103.459,238.166 102.543 C 238.357 102.046,238.295 101.989,237.909 102.309 C 230.535 108.421,205.603 113.457,192.908 111.398 C 179.359 109.201,175.169 102.879,180.520 92.707 C 181.415 91.005,182.028 89.495,181.883 89.350 C 181.434 88.901,175.663 91.299,175.874 91.847 C 175.986 92.139,174.045 93.691,171.132 95.638 C 153.579 107.369,148.846 113.228,155.001 115.608 C 155.660 115.863,158.739 116.499,161.842 117.020 C 172.780 118.858,176.400 121.439,176.400 127.403 C 176.400 133.399,171.888 136.536,153.723 143.169 C 121.552 154.917,111.340 162.840,107.448 179.069 C 106.551 182.810,106.295 183.086,105.841 180.800 C 105.731 180.250,105.717 182.050,105.809 184.800 C 105.974 189.739,106.705 194.735,107.825 198.573 C 108.789 201.877,108.301 202.438,105.931 200.751 C 102.106 198.027,105.912 209.281,110.466 214.161 C 112.531 216.373,112.710 216.190,111.800 212.800 C 110.672 208.598,111.044 207.669,113.211 209.272 C 114.960 210.564,115.045 210.037,113.888 205.096 C 107.069 175.972,120.176 159.310,158.814 147.983 C 181.244 141.407,191.561 132.771,185.399 125.728 C 181.783 121.594,182.656 121.176,194.258 121.484 C 209.405 121.885,220.632 120.079,233.040 115.243 C 247.434 109.634,268.794 95.406,270.976 89.975 C 271.870 87.749,271.207 86.900,266.923 84.783 C 253.255 78.027,259.587 69.087,280.800 65.186 C 296.536 62.293,308.913 57.095,314.981 50.832 C 317.122 48.622,316.359 48.720,309.504 51.535 M354.509 116.800 C 354.509 117.790,354.587 118.195,354.682 117.700 C 354.778 117.205,354.778 116.395,354.682 115.900 C 354.587 115.405,354.509 115.810,354.509 116.800 M281.461 152.019 C 280.394 152.198,279.404 152.470,279.261 152.624 C 278.935 152.972,282.604 152.457,283.753 151.993 C 284.781 151.577,284.044 151.586,281.461 152.019 M162.600 159.837 C 158.774 161.410,157.887 161.963,155.800 164.075 C 153.183 166.724,153.367 166.741,157.000 164.192 C 158.320 163.265,160.701 161.852,162.292 161.053 C 168.976 157.691,169.111 157.160,162.600 159.837 M147.505 179.716 C 144.145 182.847,144.281 182.596,141.001 191.632 C 138.055 199.749,138.146 200.031,142.378 195.900 C 144.889 193.448,144.999 193.250,148.069 185.632 C 152.216 175.342,152.215 175.327,147.505 179.716 M286.200 184.954 C 280.288 187.113,276.453 189.039,276.011 190.072 C 275.305 191.718,273.135 202.454,273.380 203.091 C 273.609 203.690,283.421 203.551,285.049 202.926 C 285.938 202.585,291.132 184.860,290.596 183.994 C 290.269 183.464,290.301 183.457,286.200 184.954 M249.314 200.200 C 249.317 201.300,249.395 201.703,249.487 201.095 C 249.579 200.486,249.577 199.586,249.482 199.095 C 249.387 198.603,249.311 199.100,249.314 200.200 M142.043 205.799 C 140.813 207.134,140.439 207.832,140.593 208.499 C 140.708 208.995,141.076 210.750,141.411 212.400 C 142.160 216.097,141.843 215.871,149.208 217.950 C 156.435 219.989,156.246 220.082,155.206 215.030 C 154.763 212.875,154.400 211.064,154.400 211.005 C 154.400 210.584,145.057 204.000,144.459 204.000 C 144.043 204.000,142.955 204.810,142.043 205.799 M132.851 214.191 C 130.091 217.185,130.748 219.939,134.102 219.436 C 137.003 219.001,137.048 218.837,135.789 213.300 C 135.484 211.957,134.687 212.199,132.851 214.191 M208.800 254.983 C 206.490 256.172,203.565 257.539,202.300 258.021 C 199.270 259.176,198.916 257.800,207.240 277.227 L 214.480 294.123 213.350 299.638 C 212.728 302.671,212.345 305.278,212.497 305.431 C 213.367 306.300,232.306 289.375,231.836 288.149 C 231.720 287.848,227.840 282.556,223.213 276.389 C 213.798 263.840,214.298 265.000,215.800 259.200 C 217.272 253.514,217.260 253.448,214.600 253.057 C 213.208 252.852,212.454 253.103,208.800 254.983 M111.600 273.264 C 111.600 274.051,116.256 282.641,118.896 286.725 C 130.528 304.717,148.127 318.620,170.400 327.410 C 175.386 329.378,176.355 329.641,177.304 329.283 C 180.986 327.895,202.904 313.818,203.122 312.701 C 203.217 312.212,202.388 311.885,199.322 311.204 C 172.064 305.149,143.690 293.116,118.548 276.949 C 111.823 272.625,111.600 272.507,111.600 273.264 M101.000 346.000 C 102.083 347.100,103.060 348.000,103.170 348.000 C 103.280 348.000,102.483 347.100,101.400 346.000 C 100.317 344.900,99.340 344.000,99.230 344.000 C 99.120 344.000,99.917 344.900,101.000 346.000 " stroke="none" fill="#ec1b2e" fill-rule="evenodd"></path><path id="path2" d="M332.415 27.435 C 328.779 33.877,318.975 40.764,306.400 45.709 C 294.507 50.385,282.887 53.076,252.521 58.187 C 227.671 62.369,221.423 65.258,220.876 72.818 C 220.470 78.429,223.724 81.777,232.309 84.581 C 237.874 86.399,238.737 90.372,234.349 93.977 C 223.492 102.897,194.688 105.920,189.436 98.691 C 186.082 94.074,195.504 80.132,206.819 72.970 C 211.745 69.851,210.935 69.770,201.094 72.395 C 170.409 80.579,147.541 91.867,136.936 104.064 C 134.786 106.537,131.600 111.431,131.600 112.261 C 131.600 113.353,129.586 114.053,121.400 115.809 C 103.939 119.555,84.041 124.725,64.200 130.672 C 52.513 134.174,53.780 133.370,52.581 138.049 C 40.629 184.701,43.509 242.535,59.871 284.400 C 77.513 329.542,118.652 370.086,163.578 386.608 C 169.770 388.885,168.743 389.033,177.626 384.587 C 205.489 370.641,231.478 353.198,252.777 334.150 C 264.325 323.821,264.084 324.192,258.710 325.013 C 253.150 325.863,251.423 326.003,250.866 325.650 C 250.274 325.274,243.050 304.817,243.389 304.477 C 243.768 304.099,245.323 305.851,248.800 310.576 C 252.827 316.049,252.349 315.859,259.498 314.815 C 283.957 311.242,300.695 300.620,306.763 284.822 C 307.401 283.160,308.867 277.392,310.020 272.004 L 312.117 262.208 315.078 257.004 C 338.724 215.446,352.351 168.232,354.399 120.766 C 354.878 109.675,354.891 104.763,354.443 104.056 C 353.883 103.172,322.299 99.912,321.597 100.666 C 321.426 100.850,321.081 101.979,320.831 103.175 C 318.899 112.417,313.629 116.197,299.344 118.587 C 278.963 121.997,266.021 130.323,265.287 140.495 C 264.595 150.100,272.788 154.636,285.000 151.409 C 292.734 149.365,296.965 144.578,296.755 138.107 C 296.657 135.083,297.094 134.494,301.109 132.241 C 306.181 129.395,316.966 125.775,319.477 126.075 L 320.523 126.200 318.650 128.390 C 315.161 132.468,314.601 136.153,316.048 145.514 C 318.621 162.158,313.941 166.828,285.050 176.440 C 258.960 185.121,254.585 190.436,257.771 209.586 C 261.235 230.408,254.834 239.110,232.746 243.611 C 226.291 244.926,225.519 244.653,229.049 242.303 C 233.897 239.076,236.754 234.578,237.628 228.800 C 238.308 224.307,238.383 224.000,238.797 224.000 C 239.842 224.000,240.600 226.651,240.600 230.300 C 240.600 234.393,240.560 234.343,242.883 233.158 C 249.963 229.546,253.039 220.037,250.545 209.471 C 246.113 190.694,254.053 179.084,277.400 170.202 C 293.529 164.066,297.265 162.306,301.699 158.758 C 307.158 154.388,309.292 149.404,307.887 144.300 C 307.447 142.700,306.946 142.936,305.762 145.300 C 301.366 154.080,292.387 158.909,279.400 159.478 C 255.787 160.512,249.096 142.035,266.895 124.947 C 273.673 118.440,281.075 115.396,295.400 113.224 C 306.820 111.493,311.690 108.093,311.656 101.873 C 311.634 97.899,309.407 95.124,304.079 92.433 C 294.649 87.669,296.321 83.400,310.531 75.963 C 325.474 68.143,332.067 61.271,335.283 50.166 C 336.987 44.283,336.151 25.977,334.148 25.315 C 333.899 25.233,333.120 26.187,332.415 27.435 M314.981 50.832 C 308.913 57.095,296.536 62.293,280.800 65.186 C 259.587 69.087,253.255 78.027,266.923 84.783 C 271.207 86.900,271.870 87.749,270.976 89.975 C 268.794 95.406,247.434 109.634,233.040 115.243 C 220.632 120.079,209.405 121.885,194.258 121.484 C 182.656 121.176,181.783 121.594,185.399 125.728 C 191.561 132.771,181.244 141.407,158.814 147.983 C 120.176 159.310,107.069 175.972,113.888 205.096 C 115.045 210.037,114.960 210.564,113.211 209.272 C 111.044 207.669,110.672 208.598,111.800 212.800 C 112.710 216.190,112.531 216.373,110.466 214.161 C 105.912 209.281,102.106 198.027,105.931 200.751 C 108.301 202.438,108.789 201.877,107.825 198.573 C 103.333 183.175,105.891 168.507,114.591 159.781 C 121.580 152.771,129.405 148.578,150.000 140.810 C 162.524 136.086,165.645 134.344,168.100 130.709 C 172.077 124.820,165.682 120.817,152.256 120.790 C 143.325 120.773,140.991 119.149,142.678 114.126 C 144.696 108.118,160.826 97.287,177.707 90.606 C 182.444 88.731,182.564 88.821,180.520 92.707 C 178.625 96.310,177.803 99.410,178.187 101.511 C 181.544 119.867,238.449 112.154,248.312 92.005 C 251.369 85.761,248.774 81.526,238.724 76.361 C 231.372 72.582,230.963 71.695,235.478 69.307 C 240.034 66.896,245.350 65.660,262.600 62.998 C 286.688 59.282,298.308 56.402,310.800 51.053 C 316.271 48.711,317.078 48.668,314.981 50.832 M341.200 122.138 C 341.200 149.671,331.854 195.011,322.628 212.238 C 321.422 214.489,321.457 214.295,323.430 207.800 C 332.275 178.690,335.511 159.627,335.856 134.600 C 336.065 119.511,335.926 120.485,338.063 119.100 C 341.014 117.187,341.200 117.367,341.200 122.138 M138.498 135.538 C 138.999 136.039,138.393 136.391,131.200 139.777 C 106.351 151.475,97.235 161.663,95.735 179.416 C 95.352 183.943,94.404 183.870,92.561 179.171 C 90.806 174.699,90.378 175.518,90.035 184.000 L 89.800 189.800 85.400 189.721 C 67.592 189.400,68.463 189.705,67.122 183.331 C 61.428 156.271,81.539 138.070,120.303 135.204 C 125.667 134.808,137.993 135.033,138.498 135.538 M80.599 140.002 C 80.462 140.223,79.268 141.139,77.946 142.037 C 70.226 147.279,64.165 155.730,61.654 164.750 C 59.419 172.781,59.998 164.289,62.634 150.373 C 63.939 143.486,63.192 144.231,71.258 141.773 C 77.925 139.742,81.136 139.134,80.599 140.002 M208.064 155.436 C 213.199 157.546,217.948 159.529,218.617 159.842 C 220.070 160.523,227.389 170.131,227.076 170.947 C 226.961 171.245,225.233 172.143,223.235 172.943 L 219.601 174.397 217.701 173.670 C 216.655 173.270,211.102 171.003,205.360 168.633 L 194.920 164.323 191.760 160.780 C 190.022 158.831,188.600 156.925,188.600 156.543 C 188.600 155.959,197.219 151.646,198.464 151.608 C 198.608 151.604,202.928 153.326,208.064 155.436 M166.492 158.801 C 165.772 159.239,163.882 160.253,162.292 161.053 C 160.701 161.852,158.320 163.265,157.000 164.192 C 153.367 166.741,153.183 166.724,155.800 164.075 C 157.887 161.963,158.774 161.410,162.600 159.837 C 167.397 157.864,168.516 157.566,166.492 158.801 M182.095 164.551 C 183.583 166.499,184.800 168.456,184.800 168.900 C 184.800 170.013,176.441 191.629,175.666 192.520 C 174.891 193.411,159.512 201.200,158.528 201.200 C 157.865 201.200,150.800 194.558,150.800 193.934 C 150.800 193.256,160.085 170.946,160.569 170.460 C 161.436 169.592,178.141 160.867,178.795 160.941 C 179.122 160.979,180.607 162.603,182.095 164.551 M204.266 177.262 C 215.280 181.590,215.600 181.745,215.600 182.749 C 215.600 183.683,208.827 200.893,208.202 201.546 C 207.631 202.143,186.112 193.958,185.746 193.005 C 185.609 192.647,190.677 179.061,192.798 174.100 C 193.319 172.883,192.670 172.704,204.266 177.262 M151.200 177.332 C 151.200 180.045,144.782 193.553,142.378 195.900 C 138.146 200.031,138.055 199.749,141.001 191.632 C 144.281 182.596,144.145 182.847,147.505 179.716 C 150.692 176.746,151.200 176.418,151.200 177.332 M232.965 182.500 C 235.101 190.139,236.063 193.929,236.087 194.800 C 236.126 196.194,230.064 217.283,229.442 217.919 C 228.881 218.491,221.430 219.389,220.747 218.967 C 220.318 218.702,217.794 213.473,216.367 209.895 L 215.608 207.991 220.277 196.095 C 225.445 182.928,225.307 183.175,228.400 181.576 C 231.705 179.867,232.260 179.979,232.965 182.500 M290.596 183.994 C 291.132 184.860,285.938 202.585,285.049 202.926 C 283.421 203.551,273.609 203.690,273.380 203.091 C 273.135 202.454,275.305 191.718,276.011 190.072 C 276.727 188.401,289.922 182.903,290.596 183.994 M56.576 198.900 C 56.682 199.395,57.049 201.240,57.393 203.000 C 58.170 206.978,59.794 212.378,60.483 213.273 C 60.934 213.860,62.899 214.031,75.800 214.609 L 90.600 215.271 93.600 216.506 C 97.403 218.071,97.536 218.191,99.971 222.266 C 102.785 226.974,103.309 226.353,95.006 228.155 C 91.549 228.905,88.572 229.672,88.391 229.860 C 88.027 230.236,84.400 246.930,84.400 248.231 C 84.400 249.058,89.587 254.360,95.600 259.679 C 100.972 264.431,97.645 263.272,88.917 257.351 C 83.305 253.544,83.319 253.546,84.010 256.478 C 94.100 299.253,124.905 332.057,170.688 348.780 C 174.140 350.041,174.074 349.854,173.188 355.816 C 172.431 360.918,172.222 363.600,172.584 363.600 C 175.409 363.600,204.735 348.433,218.600 339.801 C 227.778 334.087,228.198 333.866,226.600 335.592 C 221.093 341.539,191.055 361.068,175.242 368.983 L 170.684 371.265 167.642 370.168 C 105.583 347.797,64.881 293.448,59.374 225.600 C 59.240 223.950,58.709 221.070,58.194 219.200 C 56.130 211.715,54.670 198.000,55.936 198.000 C 56.183 198.000,56.471 198.405,56.576 198.900 M191.655 206.421 C 198.115 209.073,203.764 211.480,204.210 211.771 C 205.071 212.334,210.579 224.187,210.236 224.741 C 209.953 225.200,192.449 239.368,191.951 239.543 C 191.727 239.621,191.151 239.335,190.671 238.906 C 190.192 238.477,188.630 237.705,187.200 237.192 C 180.257 234.699,164.443 227.458,163.875 226.513 C 163.471 225.838,161.496 211.648,161.724 211.053 C 161.920 210.544,178.736 201.699,179.655 201.621 C 179.795 201.610,185.195 203.769,191.655 206.421 M149.808 207.449 C 152.334 209.346,154.400 210.946,154.400 211.005 C 154.400 211.064,154.763 212.875,155.206 215.030 C 156.246 220.082,156.435 219.989,149.208 217.950 C 141.843 215.871,142.160 216.097,141.411 212.400 C 141.076 210.750,140.708 208.995,140.593 208.499 C 140.340 207.407,143.267 204.000,144.459 204.000 C 144.876 204.000,147.283 205.552,149.808 207.449 M292.105 213.000 C 314.728 243.105,312.213 270.453,285.642 283.259 C 279.225 286.353,268.606 289.321,261.944 289.884 L 259.289 290.109 246.102 272.536 C 238.850 262.871,232.702 254.564,232.441 254.076 C 231.817 252.911,231.813 252.912,238.600 252.652 C 266.733 251.574,279.854 235.474,270.263 213.800 C 269.484 212.040,268.972 210.474,269.124 210.321 C 269.487 209.954,280.755 209.292,285.600 209.352 L 289.400 209.400 292.105 213.000 M135.789 213.300 C 137.048 218.837,137.003 219.001,134.102 219.436 C 130.748 219.939,130.091 217.185,132.851 214.191 C 134.687 212.199,135.484 211.957,135.789 213.300 M151.640 226.611 C 161.588 232.665,171.532 237.531,181.162 241.057 C 183.452 241.896,185.542 242.799,185.808 243.065 C 186.824 244.081,204.152 285.208,203.738 285.622 C 203.177 286.183,192.635 283.437,183.000 280.220 C 154.009 270.540,127.560 256.120,106.014 238.244 C 100.022 233.273,99.855 232.878,103.404 232.073 C 117.582 228.854,143.686 223.274,144.718 223.241 C 145.710 223.210,147.422 224.043,151.640 226.611 M223.590 230.639 C 219.334 234.965,211.149 240.402,206.849 241.761 C 200.532 243.756,200.732 243.432,210.300 236.152 C 219.562 229.106,218.717 229.655,222.000 228.544 C 226.781 226.925,226.983 227.191,223.590 230.639 M216.500 253.470 C 217.006 253.769,216.826 255.236,215.800 259.200 C 214.298 265.000,213.798 263.840,223.213 276.389 C 227.840 282.556,231.720 287.848,231.836 288.149 C 232.306 289.375,213.367 306.300,212.497 305.431 C 212.345 305.278,212.728 302.671,213.350 299.638 L 214.480 294.123 207.240 277.227 C 198.916 257.800,199.270 259.176,202.300 258.021 C 203.565 257.539,206.490 256.172,208.800 254.983 C 212.905 252.871,214.843 252.490,216.500 253.470 M118.548 276.949 C 143.690 293.116,172.064 305.149,199.322 311.204 C 202.388 311.885,203.217 312.212,203.122 312.701 C 202.904 313.818,180.986 327.895,177.304 329.283 C 176.355 329.641,175.386 329.378,170.400 327.410 C 144.682 317.260,125.851 300.861,113.996 278.289 C 110.436 271.512,110.200 271.582,118.548 276.949 " stroke="none" fill="#0e000d" fill-rule="evenodd"></path><path id="path3" d="M332.379 26.700 C 329.686 31.473,323.950 36.460,316.209 40.761 C 313.794 42.102,312.004 43.200,312.231 43.200 C 312.991 43.200,321.374 38.222,324.001 36.210 C 328.244 32.962,332.515 28.081,333.743 25.078 C 334.044 24.343,334.717 25.523,335.020 27.319 C 335.163 28.163,335.372 28.761,335.485 28.649 C 335.884 28.250,334.718 24.400,334.198 24.400 C 333.911 24.400,333.092 25.435,332.379 26.700 M335.670 29.800 C 335.657 30.240,335.795 31.320,335.977 32.200 C 336.255 33.545,336.308 33.609,336.307 32.600 C 336.305 31.199,335.708 28.570,335.670 29.800 M336.528 36.400 C 336.528 37.830,336.601 38.415,336.689 37.700 C 336.778 36.985,336.778 35.815,336.689 35.100 C 336.601 34.385,336.528 34.970,336.528 36.400 M336.524 43.400 C 336.526 44.720,336.601 45.212,336.690 44.493 C 336.779 43.774,336.777 42.694,336.686 42.093 C 336.595 41.492,336.522 42.080,336.524 43.400 M306.516 45.136 C 304.049 46.142,302.097 47.030,302.176 47.110 C 302.345 47.279,310.314 44.183,311.200 43.604 C 312.314 42.876,311.019 43.300,306.516 45.136 M335.840 47.640 C 335.693 48.557,335.652 49.385,335.747 49.480 C 335.842 49.576,336.046 48.910,336.200 48.000 C 336.354 47.090,336.396 46.262,336.293 46.160 C 336.190 46.057,335.987 46.723,335.840 47.640 M299.600 47.800 C 298.830 48.097,298.470 48.345,298.800 48.352 C 299.130 48.358,299.940 48.117,300.600 47.814 C 302.145 47.107,301.426 47.097,299.600 47.800 M296.749 48.585 C 296.647 48.686,293.872 49.483,290.582 50.356 C 287.292 51.228,284.870 51.955,285.200 51.970 C 285.888 52.001,295.693 49.452,297.200 48.850 C 297.775 48.620,297.931 48.440,297.567 48.425 C 297.218 48.411,296.850 48.483,296.749 48.585 M334.275 53.193 C 331.080 62.225,324.633 68.429,310.518 76.051 C 301.594 80.870,298.353 83.440,298.416 85.647 C 298.424 85.951,298.669 85.654,298.960 84.988 C 299.882 82.870,303.298 80.298,309.731 76.878 C 321.331 70.711,327.506 65.816,331.530 59.600 C 333.172 57.063,335.760 51.074,335.520 50.366 C 335.454 50.171,334.894 51.443,334.275 53.193 M276.800 53.400 C 273.390 54.124,270.887 54.735,271.238 54.758 C 271.871 54.800,283.435 52.542,284.200 52.228 C 285.373 51.745,282.296 52.233,276.800 53.400 M267.400 55.200 C 266.330 55.472,266.308 55.505,267.200 55.505 C 267.750 55.505,268.740 55.368,269.400 55.200 C 270.470 54.928,270.492 54.895,269.600 54.895 C 269.050 54.895,268.060 55.032,267.400 55.200 M297.200 56.038 C 295.330 56.672,294.406 57.084,295.147 56.954 C 296.780 56.665,302.045 54.855,301.200 54.872 C 300.870 54.878,299.070 55.403,297.200 56.038 M289.200 58.200 C 287.330 58.708,286.040 59.141,286.333 59.162 C 286.936 59.205,293.309 57.623,293.567 57.366 C 293.900 57.034,292.530 57.296,289.200 58.200 M245.000 58.992 C 241.787 59.669,243.456 59.692,247.000 59.020 C 248.540 58.728,249.260 58.489,248.600 58.488 C 247.940 58.488,246.320 58.714,245.000 58.992 M236.101 60.790 C 226.646 63.214,219.887 68.219,220.516 72.330 C 220.668 73.324,220.684 73.311,220.740 72.145 C 220.962 67.498,227.687 63.076,238.200 60.666 C 240.620 60.111,242.150 59.653,241.600 59.647 C 241.050 59.641,238.576 60.155,236.101 60.790 M280.000 60.200 C 278.790 60.481,278.250 60.713,278.800 60.717 C 279.350 60.720,280.700 60.492,281.800 60.209 C 284.396 59.542,282.872 59.534,280.000 60.200 M266.100 62.676 C 266.485 62.776,267.115 62.776,267.500 62.676 C 267.885 62.575,267.570 62.493,266.800 62.493 C 266.030 62.493,265.715 62.575,266.100 62.676 M263.300 63.076 C 263.685 63.176,264.315 63.176,264.700 63.076 C 265.085 62.975,264.770 62.893,264.000 62.893 C 263.230 62.893,262.915 62.975,263.300 63.076 M258.800 63.600 C 257.738 63.824,257.641 63.902,258.400 63.924 C 258.950 63.941,260.120 63.805,261.000 63.623 C 262.334 63.347,262.400 63.293,261.400 63.299 C 260.740 63.302,259.570 63.438,258.800 63.600 M247.602 65.512 C 245.954 65.855,244.789 66.196,245.013 66.271 C 245.238 66.346,247.037 66.064,249.011 65.644 C 250.985 65.224,252.150 64.882,251.600 64.885 C 251.050 64.887,249.251 65.170,247.602 65.512 M239.200 67.740 C 232.094 70.264,231.018 72.326,235.549 74.740 C 236.848 75.433,238.067 75.995,238.256 75.989 C 238.445 75.983,237.534 75.398,236.231 74.689 C 231.467 72.098,232.303 70.500,239.759 67.948 C 241.542 67.338,242.730 66.834,242.400 66.828 C 242.070 66.822,240.630 67.232,239.200 67.740 M207.400 70.387 C 205.860 70.783,204.835 71.129,205.123 71.154 C 205.410 71.179,206.427 71.003,207.382 70.763 C 210.776 69.908,210.595 70.527,206.706 73.071 C 198.018 78.754,189.695 88.868,188.981 94.610 C 188.814 95.953,188.880 95.860,189.406 94.014 C 191.502 86.647,199.718 77.414,208.880 72.130 C 213.585 69.416,213.151 68.905,207.400 70.387 M201.081 71.887 C 199.806 72.222,198.841 72.574,198.937 72.670 C 199.116 72.850,204.068 71.659,204.367 71.364 C 204.662 71.073,203.456 71.265,201.081 71.887 M196.600 73.200 C 196.096 73.417,196.022 73.544,196.400 73.544 C 196.730 73.544,197.360 73.389,197.800 73.200 C 198.304 72.983,198.378 72.856,198.000 72.856 C 197.670 72.856,197.040 73.011,196.600 73.200 M193.800 74.000 C 193.296 74.217,193.222 74.344,193.600 74.344 C 193.930 74.344,194.560 74.189,195.000 74.000 C 195.504 73.783,195.578 73.656,195.200 73.656 C 194.870 73.656,194.240 73.811,193.800 74.000 M220.448 74.600 C 220.308 78.791,224.006 82.068,232.200 85.015 C 238.809 87.392,237.960 91.963,230.090 96.378 C 228.831 97.085,228.160 97.550,228.600 97.412 C 231.604 96.470,236.514 92.280,237.032 90.216 C 237.644 87.775,235.526 85.695,230.759 84.055 C 224.339 81.846,221.683 79.445,220.818 75.069 C 220.537 73.651,220.482 73.580,220.448 74.600 M189.800 75.200 C 188.700 75.606,188.070 75.938,188.400 75.938 C 188.730 75.938,189.900 75.606,191.000 75.200 C 192.100 74.794,192.730 74.462,192.400 74.462 C 192.070 74.462,190.900 74.794,189.800 75.200 M184.200 76.986 C 182.655 77.693,183.374 77.703,185.200 77.000 C 185.970 76.703,186.330 76.455,186.000 76.448 C 185.670 76.442,184.860 76.683,184.200 76.986 M241.800 77.843 C 245.582 80.113,247.442 81.827,248.562 84.074 C 249.133 85.220,249.599 85.897,249.599 85.579 C 249.593 83.322,242.171 76.394,239.766 76.401 C 239.565 76.402,240.480 77.050,241.800 77.843 M179.275 78.673 C 178.326 79.009,177.621 79.354,177.707 79.441 C 177.890 79.623,181.600 78.405,181.600 78.162 C 181.600 77.912,181.145 78.012,179.275 78.673 M172.200 81.410 C 151.172 89.892,137.144 100.239,131.476 111.446 L 130.441 113.493 126.806 114.199 C 124.807 114.587,123.251 114.984,123.347 115.081 C 124.046 115.779,130.557 113.788,131.156 112.692 C 138.178 99.860,150.742 90.417,172.200 81.844 C 174.840 80.789,177.075 79.853,177.167 79.763 C 177.613 79.326,176.221 79.788,172.200 81.410 M249.693 87.600 C 249.693 88.370,249.775 88.685,249.876 88.300 C 249.976 87.915,249.976 87.285,249.876 86.900 C 249.775 86.515,249.693 86.830,249.693 87.600 M298.416 87.286 C 298.387 88.563,300.755 90.664,304.416 92.609 C 308.523 94.789,310.524 96.794,311.386 99.588 C 311.693 100.584,311.957 101.079,311.972 100.687 C 312.071 98.159,308.938 94.478,305.023 92.523 C 301.318 90.672,299.639 89.375,298.975 87.848 C 298.664 87.135,298.425 86.894,298.416 87.286 M249.040 90.203 C 248.272 93.322,244.738 97.659,240.500 100.685 C 239.125 101.667,238.000 102.556,238.000 102.661 C 238.000 103.213,243.168 99.109,245.178 96.960 C 247.511 94.466,249.828 90.483,249.507 89.520 C 249.412 89.237,249.203 89.545,249.040 90.203 M172.400 92.947 C 155.561 100.390,142.292 110.364,142.418 115.484 C 142.427 115.878,142.668 115.549,142.952 114.753 C 145.284 108.227,156.948 100.030,175.200 92.089 C 175.750 91.850,176.020 91.647,175.800 91.638 C 175.580 91.628,174.050 92.218,172.400 92.947 M188.816 97.353 C 188.799 98.160,191.346 100.804,192.128 100.793 C 192.388 100.790,191.993 100.398,191.251 99.923 C 190.509 99.448,189.661 98.506,189.367 97.830 C 189.000 96.988,188.826 96.838,188.816 97.353 M225.400 98.429 C 224.520 98.852,224.250 99.086,224.800 98.949 C 225.933 98.667,228.012 97.625,227.400 97.646 C 227.180 97.653,226.280 98.006,225.400 98.429 M218.400 100.600 C 217.410 100.887,216.960 101.125,217.400 101.130 C 217.840 101.135,218.920 100.901,219.800 100.611 C 221.871 99.929,220.749 99.920,218.400 100.600 M321.285 100.500 C 321.058 100.775,320.769 101.720,320.644 102.600 L 320.416 104.200 320.925 102.400 C 321.425 100.630,321.467 100.596,323.417 100.363 L 325.400 100.126 323.549 100.063 C 322.482 100.027,321.523 100.212,321.285 100.500 M328.200 100.813 C 329.740 100.971,331.900 101.096,333.000 101.089 C 334.882 101.079,334.846 101.061,332.400 100.786 C 330.970 100.625,328.810 100.501,327.600 100.510 C 325.449 100.526,325.462 100.532,328.200 100.813 M193.200 101.158 C 193.530 101.361,194.520 101.632,195.400 101.761 C 196.533 101.926,196.708 101.897,196.000 101.662 C 194.164 101.052,192.557 100.763,193.200 101.158 M336.105 101.487 C 336.714 101.579,337.614 101.577,338.105 101.482 C 338.597 101.387,338.100 101.311,337.000 101.314 C 335.900 101.317,335.497 101.395,336.105 101.487 M212.500 101.876 C 212.885 101.976,213.515 101.976,213.900 101.876 C 214.285 101.775,213.970 101.693,213.200 101.693 C 212.430 101.693,212.115 101.775,212.500 101.876 M341.200 102.017 C 342.410 102.184,344.030 102.315,344.800 102.307 C 345.922 102.296,345.803 102.231,344.200 101.982 C 343.100 101.810,341.480 101.680,340.600 101.691 C 339.207 101.710,339.284 101.752,341.200 102.017 M197.700 102.276 C 198.085 102.376,198.715 102.376,199.100 102.276 C 199.485 102.175,199.170 102.093,198.400 102.093 C 197.630 102.093,197.315 102.175,197.700 102.276 M209.100 102.282 C 209.595 102.378,210.405 102.378,210.900 102.282 C 211.395 102.187,210.990 102.109,210.000 102.109 C 209.010 102.109,208.605 102.187,209.100 102.282 M202.100 102.694 C 203.145 102.776,204.855 102.776,205.900 102.694 C 206.945 102.612,206.090 102.544,204.000 102.544 C 201.910 102.544,201.055 102.612,202.100 102.694 M347.100 102.682 C 347.595 102.778,348.405 102.778,348.900 102.682 C 349.395 102.587,348.990 102.509,348.000 102.509 C 347.010 102.509,346.605 102.587,347.100 102.682 M311.654 103.622 C 311.508 106.365,308.564 109.322,304.065 111.241 C 302.599 111.867,301.629 112.383,301.909 112.389 C 305.483 112.465,312.421 106.257,311.878 103.469 C 311.730 102.706,311.702 102.725,311.654 103.622 M350.700 103.082 C 351.195 103.178,352.005 103.178,352.500 103.082 C 352.995 102.987,352.590 102.909,351.600 102.909 C 350.610 102.909,350.205 102.987,350.700 103.082 M354.100 103.632 C 354.710 103.987,354.811 104.799,354.888 109.920 L 354.976 115.800 355.099 110.055 C 355.221 104.378,355.003 103.181,353.851 103.212 C 353.603 103.219,353.715 103.408,354.100 103.632 M318.446 108.229 C 316.732 111.534,314.009 113.981,310.299 115.549 C 308.705 116.223,307.629 116.780,307.909 116.787 C 309.136 116.818,313.730 114.310,315.528 112.628 C 317.240 111.027,320.344 106.210,319.930 105.797 C 319.849 105.716,319.181 106.810,318.446 108.229 M298.600 112.800 C 297.522 113.074,297.502 113.106,298.400 113.113 C 298.950 113.117,299.850 112.976,300.400 112.800 C 301.744 112.369,300.292 112.369,298.600 112.800 M293.200 113.600 C 291.201 114.021,293.252 114.038,295.600 113.620 C 297.224 113.332,297.263 113.300,296.000 113.303 C 295.230 113.304,293.970 113.438,293.200 113.600 M286.043 115.010 C 283.977 115.544,282.177 116.102,282.043 116.249 C 281.909 116.397,282.250 116.394,282.800 116.242 C 283.350 116.090,285.600 115.536,287.800 115.011 C 290.000 114.485,291.350 114.052,290.800 114.048 C 290.250 114.043,288.109 114.476,286.043 115.010 M120.400 115.600 C 119.608 115.854,119.567 115.920,120.200 115.920 C 120.640 115.920,121.450 115.776,122.000 115.600 C 122.792 115.346,122.833 115.280,122.200 115.280 C 121.760 115.280,120.950 115.424,120.400 115.600 M111.700 117.499 C 108.345 118.288,105.677 119.010,105.770 119.103 C 105.916 119.249,117.884 116.636,119.000 116.214 C 120.509 115.644,116.835 116.291,111.700 117.499 M142.416 117.331 C 142.391 118.500,144.565 120.406,145.869 120.359 L 147.000 120.318 145.765 120.023 C 144.022 119.606,143.595 119.274,142.976 117.852 C 142.626 117.047,142.426 116.861,142.416 117.331 M276.389 118.429 C 267.683 122.639,257.408 134.073,257.620 139.315 C 257.630 139.582,258.079 138.656,258.617 137.257 C 261.536 129.671,268.408 122.643,276.852 118.608 C 278.913 117.622,280.410 116.813,280.179 116.808 C 279.947 116.804,278.242 117.533,276.389 118.429 M301.600 117.829 L 299.000 118.360 301.259 118.157 C 302.502 118.044,304.032 117.799,304.659 117.611 C 306.405 117.087,304.598 117.216,301.600 117.829 M338.063 119.100 C 335.926 120.485,336.065 119.511,335.856 134.600 C 335.511 159.627,332.275 178.690,323.430 207.800 C 321.457 214.295,321.422 214.489,322.628 212.238 C 331.854 195.011,341.200 149.671,341.200 122.138 C 341.200 117.367,341.014 117.187,338.063 119.100 M354.548 122.400 C 354.548 124.710,354.614 125.655,354.695 124.500 C 354.776 123.345,354.776 121.455,354.695 120.300 C 354.614 119.145,354.548 120.090,354.548 122.400 M292.800 119.400 C 290.394 120.097,291.623 120.110,294.400 119.417 C 295.610 119.115,296.150 118.870,295.600 118.873 C 295.050 118.876,293.790 119.113,292.800 119.400 M340.237 125.900 C 339.606 141.718,337.584 157.839,334.428 172.201 C 333.160 177.976,330.364 188.497,330.153 188.287 C 330.088 188.221,330.814 184.305,331.768 179.584 C 335.456 161.327,337.652 139.105,337.024 126.400 C 336.888 123.650,336.917 121.198,337.088 120.950 C 337.379 120.530,340.007 118.805,340.360 118.801 C 340.448 118.801,340.393 121.995,340.237 125.900 M289.000 120.400 C 288.496 120.617,288.422 120.744,288.800 120.744 C 289.130 120.744,289.760 120.589,290.200 120.400 C 290.704 120.183,290.778 120.056,290.400 120.056 C 290.070 120.056,289.440 120.211,289.000 120.400 M97.400 120.989 C 95.252 121.697,96.097 121.724,98.600 121.028 C 99.700 120.722,100.240 120.469,99.800 120.467 C 99.360 120.464,98.280 120.699,97.400 120.989 M150.100 120.697 C 151.585 120.774,154.015 120.774,155.500 120.697 C 156.985 120.620,155.770 120.557,152.800 120.557 C 149.830 120.557,148.615 120.620,150.100 120.697 M284.362 121.968 C 271.654 126.694,264.684 133.772,264.863 141.771 L 264.927 144.600 265.173 141.200 C 265.753 133.196,272.714 126.488,284.900 122.190 C 286.605 121.588,288.000 121.030,288.000 120.948 C 288.000 120.671,287.401 120.839,284.362 121.968 M163.091 121.938 C 166.467 122.947,168.681 124.466,169.152 126.098 C 169.427 127.049,169.538 127.166,169.564 126.531 C 169.647 124.521,166.002 121.996,162.200 121.431 C 161.063 121.262,161.321 121.409,163.091 121.938 M93.600 122.000 C 92.796 122.257,92.757 122.323,93.400 122.332 C 93.840 122.338,94.560 122.189,95.000 122.000 C 96.019 121.562,94.968 121.562,93.600 122.000 M86.895 123.696 C 84.418 124.371,82.466 124.999,82.557 125.090 C 82.726 125.259,92.062 122.850,92.367 122.559 C 92.739 122.204,91.174 122.529,86.895 123.696 M78.463 126.009 C 75.390 126.916,74.590 127.261,76.200 126.985 C 77.854 126.701,82.339 125.274,81.600 125.267 C 81.270 125.264,79.858 125.598,78.463 126.009 M315.481 126.687 C 314.206 127.022,313.238 127.372,313.331 127.465 C 313.424 127.558,314.699 127.333,316.165 126.965 C 319.411 126.149,319.646 126.321,318.047 128.341 C 316.589 130.182,315.210 133.056,315.236 134.200 C 315.245 134.640,315.480 134.280,315.757 133.400 C 316.429 131.265,317.063 130.120,318.662 128.159 C 320.652 125.718,320.120 125.471,315.481 126.687 M354.128 129.200 C 354.128 130.630,354.201 131.215,354.289 130.500 C 354.378 129.785,354.378 128.615,354.289 127.900 C 354.201 127.185,354.128 127.770,354.128 129.200 M72.400 127.800 C 71.630 128.097,71.270 128.339,71.600 128.339 C 71.930 128.339,72.830 128.097,73.600 127.800 C 74.370 127.503,74.730 127.261,74.400 127.261 C 74.070 127.261,73.170 127.503,72.400 127.800 M310.075 128.273 C 309.126 128.609,308.421 128.954,308.507 129.040 C 308.593 129.127,309.640 128.851,310.832 128.428 C 312.024 128.005,312.730 127.660,312.400 127.661 C 312.070 127.662,311.024 127.938,310.075 128.273 M169.100 129.064 C 168.370 132.545,163.130 135.933,152.100 140.055 C 147.865 141.638,144.468 143.001,144.551 143.084 C 144.829 143.363,159.744 137.595,161.984 136.342 C 166.353 133.899,169.876 130.244,169.517 128.528 C 169.414 128.037,169.278 128.212,169.100 129.064 M69.000 128.800 C 68.496 129.017,68.422 129.144,68.800 129.144 C 69.130 129.144,69.760 128.989,70.200 128.800 C 70.704 128.583,70.778 128.456,70.400 128.456 C 70.070 128.456,69.440 128.611,69.000 128.800 M63.000 130.595 C 60.800 131.323,59.180 131.935,59.400 131.955 C 59.620 131.975,61.690 131.382,64.000 130.636 C 66.310 129.890,67.930 129.278,67.600 129.276 C 67.270 129.274,65.200 129.868,63.000 130.595 M303.771 130.953 C 301.807 131.917,299.435 133.268,298.500 133.955 L 296.800 135.205 296.798 137.903 C 296.792 144.398,293.559 148.617,286.883 150.839 C 285.489 151.303,284.419 151.752,284.505 151.838 C 284.888 152.222,289.740 150.207,291.670 148.864 C 295.465 146.221,297.194 142.799,297.198 137.919 L 297.200 135.238 299.020 133.986 C 300.022 133.297,302.497 131.942,304.520 130.975 C 306.544 130.008,308.007 129.213,307.771 129.208 C 307.535 129.204,305.735 129.989,303.771 130.953 M55.917 132.731 C 54.882 133.099,53.833 133.603,53.586 133.851 C 53.124 134.317,50.796 142.934,50.845 144.000 C 50.860 144.330,51.468 142.293,52.196 139.474 C 53.736 133.509,53.387 134.035,56.528 132.931 C 57.888 132.453,58.730 132.062,58.400 132.062 C 58.070 132.062,56.953 132.363,55.917 132.731 M353.720 134.000 C 353.720 135.210,353.795 135.705,353.887 135.100 C 353.978 134.495,353.978 133.505,353.887 132.900 C 353.795 132.295,353.720 132.790,353.720 134.000 M120.303 135.204 C 81.539 138.070,61.428 156.271,67.122 183.331 C 68.463 189.705,67.592 189.400,85.400 189.721 L 89.800 189.800 90.035 184.000 C 90.378 175.518,90.806 174.699,92.561 179.171 C 94.404 183.870,95.352 183.943,95.735 179.416 C 97.235 161.663,106.351 151.475,131.200 139.777 C 138.393 136.391,138.999 136.039,138.498 135.538 C 137.993 135.033,125.667 134.808,120.303 135.204 M314.937 138.200 C 314.939 139.960,315.009 140.630,315.093 139.689 C 315.178 138.749,315.177 137.309,315.091 136.489 C 315.005 135.670,314.936 136.440,314.937 138.200 M353.309 138.400 C 353.309 139.390,353.387 139.795,353.482 139.300 C 353.578 138.805,353.578 137.995,353.482 137.500 C 353.387 137.005,353.309 137.410,353.309 138.400 M71.258 141.773 C 67.440 142.936,64.169 144.126,63.989 144.417 C 63.199 145.695,60.404 162.330,60.402 165.767 C 60.400 168.682,60.607 168.514,61.654 164.750 C 64.165 155.730,70.226 147.279,77.946 142.037 C 82.616 138.866,81.011 138.802,71.258 141.773 M352.909 142.000 C 352.909 142.990,352.987 143.395,353.082 142.900 C 353.178 142.405,353.178 141.595,353.082 141.100 C 352.987 140.605,352.909 141.010,352.909 142.000 M75.800 142.485 C 70.833 146.390,66.687 151.369,63.713 157.000 C 61.679 160.851,61.641 160.494,63.177 151.991 C 64.576 144.249,64.177 144.740,70.639 142.803 C 77.147 140.853,77.938 140.804,75.800 142.485 M315.275 142.400 C 315.267 142.950,315.498 144.750,315.787 146.400 C 316.077 148.050,316.322 148.860,316.332 148.200 C 316.343 147.540,316.112 145.740,315.820 144.200 C 315.528 142.660,315.283 141.850,315.275 142.400 M305.258 145.271 C 303.954 148.047,300.808 151.713,297.800 153.960 L 296.600 154.857 297.928 154.128 C 300.275 152.842,304.312 148.278,305.670 145.377 C 306.959 142.621,307.935 142.456,308.032 144.976 C 308.049 145.440,308.154 145.573,308.272 145.280 C 308.550 144.584,307.621 142.398,307.051 142.408 C 306.803 142.412,305.996 143.701,305.258 145.271 M256.893 144.000 C 256.893 144.770,256.975 145.085,257.076 144.700 C 257.176 144.315,257.176 143.685,257.076 143.300 C 256.975 142.915,256.893 143.230,256.893 144.000 M352.493 145.200 C 352.493 145.970,352.575 146.285,352.676 145.900 C 352.776 145.515,352.776 144.885,352.676 144.500 C 352.575 144.115,352.493 144.430,352.493 145.200 M50.000 147.400 C 49.726 148.850,49.584 150.117,49.683 150.216 C 49.782 150.315,50.082 149.205,50.350 147.750 C 50.618 146.295,50.761 145.028,50.667 144.934 C 50.574 144.841,50.274 145.950,50.000 147.400 M265.209 145.222 C 265.187 146.797,268.137 150.281,270.400 151.353 C 270.730 151.509,270.550 151.314,270.000 150.919 C 268.315 149.708,266.751 147.879,265.966 146.200 C 265.554 145.320,265.214 144.880,265.209 145.222 M136.400 146.200 C 135.850 146.514,135.580 146.772,135.800 146.772 C 136.020 146.772,136.650 146.514,137.200 146.200 C 137.750 145.886,138.020 145.628,137.800 145.628 C 137.580 145.628,136.950 145.886,136.400 146.200 M308.509 147.600 C 308.509 148.590,308.587 148.995,308.682 148.500 C 308.778 148.005,308.778 147.195,308.682 146.700 C 308.587 146.205,308.509 146.610,308.509 147.600 M129.676 149.359 C 126.968 150.750,124.553 152.087,124.309 152.331 C 123.944 152.696,134.637 147.387,135.167 146.941 C 135.919 146.306,133.814 147.233,129.676 149.359 M351.829 149.229 C 351.676 150.579,351.633 151.766,351.733 151.867 C 351.834 151.967,352.044 150.947,352.200 149.600 C 352.356 148.253,352.399 147.066,352.295 146.962 C 352.191 146.858,351.981 147.878,351.829 149.229 M257.600 148.313 C 257.598 151.724,264.249 157.719,269.000 158.590 C 269.660 158.711,269.291 158.471,268.179 158.056 C 263.356 156.257,260.479 153.863,258.740 150.200 C 258.113 148.880,257.600 148.031,257.600 148.313 M308.046 150.113 C 307.744 154.762,300.168 161.125,289.750 165.481 C 287.267 166.519,285.302 167.436,285.385 167.518 C 285.706 167.839,294.517 163.843,297.793 161.890 C 303.755 158.336,308.913 152.530,308.274 150.092 C 308.107 149.454,308.089 149.456,308.046 150.113 M316.462 151.600 C 316.417 152.810,316.199 154.589,315.976 155.553 C 315.754 156.517,315.653 157.386,315.751 157.485 C 316.122 157.855,316.840 153.173,316.695 151.326 L 316.544 149.400 316.462 151.600 M193.400 153.733 C 187.589 156.295,187.625 156.143,191.760 160.780 L 194.920 164.323 205.360 168.633 C 211.102 171.003,216.655 173.270,217.701 173.670 L 219.601 174.397 223.235 172.943 C 225.233 172.143,226.961 171.245,227.076 170.947 C 227.389 170.131,220.070 160.523,218.617 159.842 C 216.559 158.878,198.744 151.599,198.464 151.608 C 198.319 151.613,196.040 152.569,193.400 153.733 M272.200 152.176 C 272.965 152.551,274.487 152.747,276.400 152.719 L 279.400 152.673 276.000 152.400 C 274.130 152.249,272.240 152.005,271.800 151.857 C 271.360 151.709,271.540 151.853,272.200 152.176 M210.072 157.184 L 219.143 160.896 222.431 165.339 C 226.458 170.779,226.448 170.698,223.200 172.054 C 219.517 173.591,219.863 173.667,207.517 168.594 C 194.050 163.060,195.787 164.022,192.404 160.233 C 188.992 156.412,188.997 156.643,192.300 155.130 C 197.734 152.642,198.482 152.427,199.800 152.975 C 200.460 153.248,205.082 155.143,210.072 157.184 M350.469 157.825 C 349.962 160.826,349.623 163.356,349.715 163.448 C 349.946 163.680,351.713 153.339,351.534 152.802 C 351.455 152.564,350.975 154.825,350.469 157.825 M48.615 155.015 C 48.461 156.254,48.417 157.350,48.519 157.452 C 48.620 157.554,48.830 156.623,48.985 155.385 C 49.139 154.146,49.183 153.050,49.081 152.948 C 48.980 152.846,48.770 153.777,48.615 155.015 M120.563 154.744 C 113.681 159.587,108.439 166.388,107.417 171.800 C 107.292 172.460,107.541 172.057,107.969 170.905 C 110.232 164.817,113.574 160.472,119.293 156.182 C 123.913 152.716,123.808 152.800,123.529 152.800 C 123.417 152.800,122.082 153.675,120.563 154.744 M73.386 157.174 C 71.688 160.558,71.176 162.800,72.103 162.800 C 72.437 162.800,76.693 161.900,81.561 160.800 C 95.668 157.612,95.589 157.945,80.800 163.995 C 69.158 168.758,69.999 168.157,70.003 171.709 C 70.008 176.211,71.530 184.410,72.564 185.507 C 72.897 185.860,75.227 186.090,80.221 186.265 C 88.274 186.546,89.318 186.762,89.128 188.101 C 89.011 188.920,88.805 188.993,86.800 188.920 C 85.590 188.876,81.207 188.720,77.061 188.575 L 69.522 188.310 68.989 187.034 C 65.287 178.176,67.297 162.814,73.091 155.678 C 75.007 153.319,75.095 153.769,73.386 157.174 M295.200 155.399 C 294.039 156.063,288.927 157.817,286.600 158.352 C 285.709 158.557,285.390 158.737,285.879 158.760 C 287.605 158.839,296.400 155.689,296.400 154.992 C 296.400 154.728,296.338 154.750,295.200 155.399 M314.388 159.909 C 312.976 162.577,309.854 165.476,305.782 167.900 C 303.841 169.055,302.429 170.000,302.644 170.000 C 305.443 170.000,316.880 159.547,315.544 158.210 C 315.451 158.118,314.931 158.883,314.388 159.909 M282.705 159.083 C 283.202 159.179,283.922 159.175,284.305 159.075 C 284.687 158.975,284.280 158.896,283.400 158.901 C 282.520 158.905,282.207 158.987,282.705 159.083 M274.900 159.496 C 276.165 159.575,278.235 159.575,279.500 159.496 C 280.765 159.416,279.730 159.351,277.200 159.351 C 274.670 159.351,273.635 159.416,274.900 159.496 M47.693 161.600 C 47.693 162.370,47.775 162.685,47.876 162.300 C 47.976 161.915,47.976 161.285,47.876 160.900 C 47.775 160.515,47.693 160.830,47.693 161.600 M169.654 165.397 C 164.954 167.885,160.865 170.164,160.569 170.460 C 160.085 170.946,150.800 193.256,150.800 193.934 C 150.800 194.558,157.865 201.200,158.528 201.200 C 159.512 201.200,174.891 193.411,175.666 192.520 C 176.441 191.629,184.800 170.013,184.800 168.900 C 184.800 167.905,179.616 161.035,178.795 160.941 C 178.468 160.904,174.354 162.909,169.654 165.397 M181.602 165.235 C 182.921 167.014,184.000 168.679,184.000 168.935 C 184.000 169.929,175.508 191.437,174.873 192.050 C 173.881 193.008,158.829 200.562,158.522 200.256 C 157.164 198.897,158.996 197.108,165.357 193.581 C 173.275 189.191,172.151 190.586,176.606 179.626 C 181.003 168.811,180.854 169.653,178.800 167.200 C 177.062 165.124,176.865 164.256,177.823 162.889 C 178.750 161.565,178.992 161.715,181.602 165.235 M47.301 164.600 C 47.305 165.480,47.387 165.793,47.483 165.295 C 47.579 164.798,47.575 164.078,47.475 163.695 C 47.375 163.313,47.296 163.720,47.301 164.600 M348.850 166.650 C 348.582 168.105,348.439 169.372,348.533 169.466 C 348.626 169.559,348.926 168.450,349.200 167.000 C 349.474 165.550,349.616 164.283,349.517 164.184 C 349.418 164.085,349.118 165.195,348.850 166.650 M46.909 168.000 C 46.909 168.990,46.987 169.395,47.082 168.900 C 47.178 168.405,47.178 167.595,47.082 167.100 C 46.987 166.605,46.909 167.010,46.909 168.000 M282.475 168.273 C 281.526 168.609,280.821 168.954,280.907 169.041 C 281.090 169.223,284.800 168.005,284.800 167.762 C 284.800 167.512,284.345 167.612,282.475 168.273 M276.480 170.560 C 274.654 171.300,273.034 172.046,272.880 172.217 C 272.726 172.388,272.870 172.419,273.200 172.287 C 273.530 172.155,275.240 171.478,277.000 170.782 C 278.760 170.086,280.275 169.445,280.367 169.358 C 280.819 168.928,279.488 169.340,276.480 170.560 M46.509 171.600 C 46.509 172.590,46.587 172.995,46.682 172.500 C 46.778 172.005,46.778 171.195,46.682 170.700 C 46.587 170.205,46.509 170.610,46.509 171.600 M300.200 170.615 C 299.540 170.917,297.421 171.738,295.491 172.440 C 293.561 173.142,292.057 173.790,292.147 173.881 C 292.336 174.070,299.690 171.379,301.200 170.569 C 302.503 169.870,301.751 169.904,300.200 170.615 M346.099 179.059 C 345.166 182.952,344.475 186.208,344.561 186.295 C 344.777 186.510,348.072 172.817,347.917 172.351 C 347.849 172.148,347.031 175.166,346.099 179.059 M268.484 174.194 C 254.451 181.728,249.553 188.450,249.681 200.000 L 249.746 205.800 249.994 199.400 C 250.445 187.779,254.996 181.761,268.926 174.366 C 270.947 173.293,272.420 172.415,272.200 172.414 C 271.980 172.414,270.308 173.214,268.484 174.194 M106.600 174.800 C 106.446 175.710,106.404 176.538,106.507 176.640 C 106.610 176.743,106.813 176.077,106.960 175.160 C 107.107 174.243,107.148 173.415,107.053 173.320 C 106.958 173.224,106.754 173.890,106.600 174.800 M192.798 174.100 C 190.677 179.061,185.609 192.647,185.746 193.005 C 186.112 193.958,207.631 202.143,208.202 201.546 C 208.827 200.893,215.600 183.683,215.600 182.749 C 215.600 181.745,215.280 181.590,204.266 177.262 C 192.670 172.704,193.319 172.883,192.798 174.100 M46.120 175.600 C 46.120 176.810,46.195 177.305,46.287 176.700 C 46.378 176.095,46.378 175.105,46.287 174.500 C 46.195 173.895,46.120 174.390,46.120 175.600 M204.643 178.345 C 210.099 180.515,214.622 182.466,214.694 182.681 C 214.883 183.250,208.186 200.138,207.707 200.298 C 207.281 200.440,206.399 197.489,206.401 195.923 C 206.401 195.415,207.211 192.867,208.201 190.261 C 210.706 183.663,211.345 184.580,201.878 181.200 L 195.956 179.086 194.978 177.156 C 193.181 173.610,192.536 173.530,204.643 178.345 M280.767 177.393 C 263.986 183.124,257.204 188.865,256.591 197.858 L 256.432 200.200 256.810 197.800 C 258.310 188.275,264.177 183.449,281.379 177.587 C 285.790 176.084,289.130 174.854,288.800 174.854 C 288.470 174.854,284.855 175.996,280.767 177.393 M106.114 179.000 C 106.117 180.100,106.195 180.503,106.287 179.895 C 106.379 179.286,106.377 178.386,106.282 177.895 C 106.187 177.403,106.111 177.900,106.114 179.000 M45.496 182.200 C 45.335 184.400,45.230 187.550,45.261 189.200 C 45.300 191.214,45.431 190.228,45.661 186.200 C 45.849 182.900,45.954 179.750,45.895 179.200 C 45.836 178.650,45.656 180.000,45.496 182.200 M228.400 181.576 C 225.307 183.175,225.445 182.928,220.277 196.095 L 215.608 207.991 216.367 209.895 C 217.794 213.473,220.318 218.702,220.747 218.967 C 221.430 219.389,228.881 218.491,229.442 217.919 C 230.064 217.283,236.126 196.194,236.087 194.800 C 236.063 193.929,235.101 190.139,232.965 182.500 C 232.260 179.979,231.705 179.867,228.400 181.576 M233.492 187.633 C 235.631 195.410,235.697 194.305,232.409 205.769 C 228.696 218.715,229.297 217.489,226.522 217.780 C 225.245 217.914,223.518 218.112,222.684 218.219 L 221.168 218.415 219.149 214.107 C 216.227 207.872,216.094 209.026,221.223 196.000 C 226.336 183.016,225.845 183.901,228.775 182.389 C 231.757 180.850,231.570 180.642,233.492 187.633 M343.829 187.829 C 343.681 188.415,343.638 188.972,343.732 189.066 C 343.827 189.160,344.024 188.758,344.171 188.171 C 344.319 187.585,344.362 187.028,344.268 186.934 C 344.173 186.840,343.976 187.242,343.829 187.829 M342.650 192.050 C 342.275 193.398,342.040 194.574,342.128 194.662 C 342.216 194.750,342.597 193.721,342.975 192.375 C 343.353 191.029,343.587 189.854,343.497 189.763 C 343.406 189.673,343.025 190.702,342.650 192.050 M44.971 201.200 C 44.971 206.150,45.028 208.175,45.099 205.700 C 45.169 203.225,45.169 199.175,45.099 196.700 C 45.028 194.225,44.971 196.250,44.971 201.200 M340.842 198.042 C 340.342 199.595,340.004 200.937,340.091 201.024 C 340.177 201.111,340.658 199.911,341.158 198.358 C 341.658 196.805,341.996 195.463,341.909 195.376 C 341.823 195.289,341.342 196.489,340.842 198.042 M55.709 203.500 C 55.940 209.229,56.606 213.442,58.194 219.200 C 58.709 221.070,59.240 223.950,59.374 225.600 C 64.881 293.448,105.583 347.797,167.642 370.168 L 170.684 371.265 175.242 368.983 C 191.055 361.068,221.093 341.539,226.600 335.592 C 228.198 333.866,227.778 334.087,218.600 339.801 C 204.735 348.433,175.409 363.600,172.584 363.600 C 172.222 363.600,172.431 360.918,173.188 355.816 C 174.074 349.854,174.140 350.041,170.688 348.780 C 124.905 332.057,94.100 299.253,84.010 256.478 C 83.319 253.546,83.305 253.544,88.917 257.351 C 97.645 263.272,100.972 264.431,95.600 259.679 C 89.587 254.360,84.400 249.058,84.400 248.231 C 84.400 246.930,88.027 230.236,88.391 229.860 C 88.572 229.672,91.549 228.905,95.006 228.155 C 103.309 226.353,102.785 226.974,99.971 222.266 C 97.536 218.191,97.403 218.071,93.600 216.506 L 90.600 215.271 75.800 214.609 C 62.899 214.031,60.934 213.860,60.483 213.273 C 59.794 212.378,58.170 206.978,57.393 203.000 C 56.424 198.040,56.412 198.000,55.936 198.000 C 55.616 198.000,55.551 199.573,55.709 203.500 M256.637 203.800 C 256.744 205.560,256.997 207.630,257.200 208.400 C 257.592 209.886,257.465 208.319,256.761 203.000 C 256.480 200.872,256.466 200.963,256.637 203.800 M170.684 206.031 C 165.890 208.445,161.858 210.705,161.724 211.053 C 161.496 211.648,163.471 225.838,163.875 226.513 C 164.443 227.458,180.257 234.699,187.200 237.192 C 188.630 237.705,190.192 238.477,190.671 238.906 C 191.151 239.335,191.727 239.621,191.951 239.543 C 192.449 239.368,209.953 225.200,210.236 224.741 C 210.579 224.187,205.071 212.334,204.210 211.771 C 203.336 211.200,180.076 201.586,179.655 201.621 C 179.515 201.633,175.478 203.618,170.684 206.031 M192.000 207.456 C 205.426 212.943,203.830 211.770,206.799 218.333 C 209.586 224.491,209.568 224.400,208.000 224.400 C 206.425 224.400,205.625 223.539,203.619 219.683 C 201.417 215.450,202.090 215.893,189.999 210.722 C 179.941 206.421,179.393 206.132,179.270 205.061 C 178.921 202.028,178.547 201.957,192.000 207.456 M60.018 214.188 C 60.478 214.648,63.816 214.926,76.000 215.518 L 91.400 216.267 94.193 217.633 C 96.819 218.918,100.800 223.733,100.800 225.624 C 100.800 226.031,100.927 225.997,93.650 227.571 C 86.999 229.010,87.633 228.163,85.395 238.600 C 82.950 250.006,82.661 248.436,88.250 254.112 C 90.863 256.765,92.505 258.635,91.900 258.268 C 89.558 256.846,88.519 256.154,86.256 254.506 C 82.180 251.539,81.867 252.084,83.798 258.792 C 96.446 302.737,125.293 333.430,168.400 348.810 C 173.423 350.602,173.215 350.071,172.010 358.027 C 171.129 363.845,171.162 364.400,172.387 364.400 C 173.444 364.400,183.239 359.987,192.750 355.226 C 199.789 351.702,203.559 349.674,212.768 344.457 C 215.818 342.729,214.231 344.129,209.119 347.674 C 199.037 354.666,180.777 365.584,173.051 369.239 L 170.702 370.350 167.051 369.020 C 106.330 346.890,68.086 296.371,60.597 228.400 C 60.246 225.210,59.527 220.980,59.000 219.000 C 56.613 210.038,55.980 203.141,58.147 209.703 C 58.855 211.850,59.697 213.868,60.018 214.188 M250.028 206.833 C 250.044 207.365,250.219 208.160,250.419 208.600 C 250.671 209.158,250.707 208.915,250.538 207.800 C 250.255 205.943,249.987 205.436,250.028 206.833 M337.247 208.847 C 336.784 210.218,336.474 211.408,336.558 211.492 C 336.643 211.576,337.090 210.523,337.553 209.153 C 338.016 207.782,338.326 206.592,338.242 206.508 C 338.157 206.424,337.710 207.477,337.247 208.847 M275.600 209.673 C 268.170 210.115,268.515 209.849,270.263 213.800 C 279.854 235.474,266.733 251.574,238.600 252.652 C 231.813 252.912,231.817 252.911,232.441 254.076 C 232.702 254.564,238.850 262.871,246.102 272.536 L 259.289 290.109 261.944 289.884 C 268.606 289.321,279.225 286.353,285.642 283.259 C 312.213 270.453,314.728 243.105,292.105 213.000 L 289.400 209.400 285.600 209.352 C 283.510 209.326,279.010 209.471,275.600 209.673 M45.252 214.233 C 45.281 216.415,45.437 219.550,45.599 221.200 C 45.773 222.974,45.811 221.422,45.693 217.400 C 45.582 213.660,45.426 210.525,45.346 210.433 C 45.266 210.342,45.224 212.052,45.252 214.233 M272.561 211.818 C 273.527 212.784,274.841 217.491,275.087 220.865 C 275.409 225.300,275.047 225.118,281.477 224.081 C 291.512 222.463,291.529 222.857,281.568 226.220 L 274.400 228.640 274.400 227.172 C 274.400 224.188,273.130 218.570,271.635 214.938 C 270.045 211.076,270.450 209.708,272.561 211.818 M335.250 214.250 C 334.773 215.496,334.450 216.584,334.533 216.666 C 334.615 216.749,335.073 215.796,335.550 214.550 C 336.027 213.304,336.350 212.216,336.267 212.134 C 336.185 212.051,335.727 213.004,335.250 214.250 M258.197 218.800 C 258.197 229.461,255.536 233.936,246.270 238.855 C 244.692 239.693,243.553 240.384,243.739 240.389 C 243.925 240.395,245.541 239.639,247.329 238.709 C 256.430 233.974,260.217 225.575,258.469 214.000 C 258.311 212.957,258.197 214.976,258.197 218.800 M251.675 215.800 C 251.629 217.340,251.506 219.320,251.402 220.200 L 251.212 221.800 251.621 220.200 C 251.846 219.320,251.969 217.340,251.895 215.800 L 251.759 213.000 251.675 215.800 M332.819 220.509 C 332.086 222.319,330.613 225.766,329.545 228.169 C 328.478 230.571,327.668 232.601,327.746 232.679 C 327.901 232.835,330.697 226.647,332.996 221.059 C 333.797 219.112,334.384 217.451,334.301 217.368 C 334.218 217.285,333.551 218.698,332.819 220.509 M250.429 223.697 C 248.767 229.374,240.958 236.609,240.282 233.100 C 240.134 232.328,240.101 232.357,240.054 233.300 C 239.897 236.482,246.466 232.117,249.310 227.150 C 250.378 225.284,251.395 222.462,251.104 222.171 C 251.007 222.074,250.704 222.761,250.429 223.697 M124.600 227.406 C 114.260 229.673,104.722 231.773,103.404 232.073 C 99.855 232.878,100.022 233.273,106.014 238.244 C 127.560 256.120,154.009 270.540,183.000 280.220 C 192.635 283.437,203.177 286.183,203.738 285.622 C 204.152 285.208,186.824 244.081,185.808 243.065 C 185.542 242.799,183.452 241.896,181.162 241.057 C 171.532 237.531,161.588 232.665,151.640 226.611 C 144.782 222.437,147.639 222.353,124.600 227.406 M299.702 225.990 C 300.682 227.866,300.761 228.239,300.257 228.608 C 299.238 229.353,271.599 239.332,271.322 239.055 C 271.176 238.910,271.529 237.758,272.106 236.495 C 272.683 235.233,273.307 233.682,273.494 233.049 C 273.816 231.959,274.355 231.718,283.617 228.514 C 288.998 226.653,294.300 224.797,295.400 224.389 C 298.122 223.382,298.392 223.482,299.702 225.990 M145.200 224.573 C 145.200 225.322,145.985 225.096,126.402 229.991 C 113.979 233.097,109.372 234.402,109.287 234.841 C 109.163 235.487,115.156 240.425,121.600 244.986 C 127.567 249.210,125.740 249.026,139.427 246.781 C 157.486 243.818,157.926 244.014,143.600 248.643 C 132.938 252.088,132.939 252.088,134.600 253.428 C 136.305 254.804,135.372 255.048,156.835 247.600 C 167.612 243.860,176.918 240.809,177.515 240.821 C 178.834 240.846,184.111 242.934,184.302 243.506 C 184.459 243.976,184.598 243.922,162.036 252.184 C 152.705 255.600,144.985 258.482,144.879 258.588 C 143.119 260.348,175.181 274.153,193.200 279.394 C 195.987 280.204,197.693 280.992,199.600 282.349 C 202.864 284.673,202.145 284.917,196.513 283.396 C 163.022 274.354,130.618 257.821,106.100 237.267 C 103.845 235.377,102.000 233.703,102.000 233.547 C 102.000 233.216,102.050 233.205,125.200 228.182 C 134.990 226.058,143.075 224.248,143.167 224.160 C 143.608 223.737,145.200 224.060,145.200 224.573 M238.235 225.600 C 237.710 229.172,237.614 230.640,237.974 229.600 C 238.165 229.050,238.341 227.970,238.366 227.200 C 238.430 225.259,238.966 224.462,239.541 225.452 C 240.097 226.408,240.137 225.803,239.586 224.774 C 238.944 223.574,238.492 223.851,238.235 225.600 M46.114 226.200 C 46.117 227.300,46.195 227.703,46.287 227.095 C 46.379 226.486,46.377 225.586,46.282 225.095 C 46.187 224.603,46.111 225.100,46.114 226.200 M240.301 229.000 C 240.414 230.540,240.572 231.875,240.653 231.967 C 240.947 232.300,240.735 227.778,240.420 227.000 C 240.235 226.542,240.184 227.398,240.301 229.000 M222.000 228.544 C 218.717 229.655,219.562 229.106,210.300 236.152 C 200.732 243.432,200.532 243.756,206.849 241.761 C 211.149 240.402,219.334 234.965,223.590 230.639 C 226.983 227.191,226.781 226.925,222.000 228.544 M46.514 230.200 C 46.517 231.300,46.595 231.703,46.687 231.095 C 46.779 230.486,46.777 229.586,46.682 229.095 C 46.587 228.603,46.511 229.100,46.514 230.200 M236.638 232.920 C 235.194 237.002,232.017 240.805,228.300 242.901 C 226.688 243.811,226.374 244.400,227.500 244.401 C 228.664 244.402,235.256 243.122,235.065 242.932 C 234.968 242.834,233.475 243.021,231.747 243.347 C 228.162 244.024,227.707 243.892,229.401 242.668 C 233.504 239.702,238.740 232.207,237.545 231.011 C 237.450 230.917,237.042 231.776,236.638 232.920 M46.901 233.800 C 46.905 234.680,46.987 234.993,47.083 234.495 C 47.179 233.998,47.175 233.278,47.075 232.895 C 46.975 232.513,46.896 232.920,46.901 233.800 M323.684 240.736 C 321.655 244.860,318.199 251.467,316.004 255.417 C 313.809 259.368,312.014 262.870,312.015 263.200 C 312.017 263.530,312.346 263.080,312.747 262.200 C 313.149 261.320,314.707 258.440,316.209 255.800 C 319.276 250.413,327.752 233.619,327.521 233.388 C 327.439 233.306,325.712 236.613,323.684 240.736 M47.293 236.800 C 47.293 237.570,47.375 237.885,47.476 237.500 C 47.576 237.115,47.576 236.485,47.476 236.100 C 47.375 235.715,47.293 236.030,47.293 236.800 M47.842 240.400 C 48.094 243.010,49.095 248.149,49.127 247.000 C 49.140 246.560,48.808 244.400,48.390 242.200 C 47.954 239.906,47.720 239.138,47.842 240.400 M240.600 241.234 C 239.500 241.659,239.120 241.905,239.756 241.781 C 241.014 241.537,243.650 240.466,243.000 240.464 C 242.780 240.463,241.700 240.809,240.600 241.234 M236.400 242.400 C 235.596 242.657,235.557 242.723,236.200 242.732 C 236.640 242.738,237.360 242.589,237.800 242.400 C 238.819 241.962,237.768 241.962,236.400 242.400 M49.287 248.800 C 49.283 249.350,49.424 250.250,49.600 250.800 C 50.031 252.144,50.031 250.692,49.600 249.000 C 49.326 247.922,49.294 247.902,49.287 248.800 M50.480 254.600 C 50.480 255.040,50.624 255.850,50.800 256.400 C 51.054 257.192,51.120 257.233,51.120 256.600 C 51.120 256.160,50.976 255.350,50.800 254.800 C 50.546 254.008,50.480 253.967,50.480 254.600 M236.400 254.916 C 237.984 255.694,239.552 257.599,249.476 270.800 L 260.752 285.800 262.527 285.920 C 271.307 286.513,290.431 279.031,298.138 271.987 C 301.373 269.030,300.934 270.334,297.500 273.881 C 289.978 281.650,271.897 289.185,260.745 289.199 C 259.821 289.200,258.147 287.143,247.317 272.700 C 231.527 251.644,232.301 252.904,236.400 254.916 M52.265 261.991 C 52.396 262.757,52.744 264.107,53.039 264.991 C 53.549 266.525,53.562 266.535,53.335 265.209 C 53.204 264.443,52.856 263.093,52.561 262.209 C 52.051 260.675,52.038 260.665,52.265 261.991 M311.227 266.427 C 310.961 267.775,310.822 268.956,310.918 269.051 C 311.013 269.146,311.308 268.121,311.573 266.773 C 311.839 265.425,311.978 264.244,311.882 264.149 C 311.787 264.054,311.492 265.079,311.227 266.427 M53.661 267.200 C 53.661 267.530,53.903 268.430,54.200 269.200 C 54.497 269.970,54.739 270.330,54.739 270.000 C 54.739 269.670,54.497 268.770,54.200 268.000 C 53.903 267.230,53.661 266.870,53.661 267.200 M310.027 272.027 C 309.761 273.375,309.622 274.556,309.718 274.651 C 309.813 274.746,310.108 273.721,310.373 272.373 C 310.639 271.025,310.778 269.844,310.682 269.749 C 310.587 269.654,310.292 270.679,310.027 272.027 M54.830 270.999 C 54.786 271.584,57.256 278.878,57.437 278.696 C 57.522 278.612,56.977 276.755,56.226 274.571 C 55.475 272.387,54.847 270.780,54.830 270.999 M308.827 277.627 C 308.561 278.975,308.422 280.156,308.518 280.251 C 308.613 280.346,308.908 279.321,309.173 277.973 C 309.439 276.625,309.578 275.444,309.482 275.349 C 309.387 275.254,309.092 276.279,308.827 277.627 M57.801 280.000 C 58.903 283.664,64.739 296.994,65.088 296.645 C 65.178 296.555,64.632 295.249,63.875 293.741 C 63.118 292.233,61.462 288.390,60.195 285.200 C 57.999 279.674,57.145 277.818,57.801 280.000 M307.423 283.105 C 304.806 291.445,299.859 297.497,289.594 304.919 C 287.909 306.137,289.668 305.149,292.130 303.495 C 295.113 301.491,299.603 297.255,301.876 294.301 C 304.718 290.608,309.025 281.692,308.312 280.979 C 308.219 280.886,307.819 281.843,307.423 283.105 M67.401 301.603 C 81.208 329.093,110.209 359.106,138.800 375.493 C 148.067 380.805,166.648 389.086,167.465 388.268 C 167.551 388.182,166.222 387.620,164.511 387.019 C 126.326 373.608,86.147 338.132,67.823 301.646 C 66.816 299.641,65.902 298.000,65.792 298.000 C 65.682 298.000,66.406 299.621,67.401 301.603 M243.618 305.276 C 243.628 305.784,243.885 306.740,244.190 307.400 L 244.744 308.600 244.510 307.238 C 244.171 305.274,244.681 305.745,248.823 311.230 C 252.327 315.871,252.465 315.999,253.912 315.954 L 255.400 315.908 253.880 315.614 C 252.089 315.267,252.614 315.798,248.068 309.730 C 244.055 304.371,243.591 303.908,243.618 305.276 M284.400 307.541 C 282.310 308.578,279.880 309.730,279.000 310.102 C 278.120 310.474,277.850 310.676,278.400 310.552 C 279.642 310.272,288.400 306.130,288.400 305.824 C 288.400 305.534,288.748 305.384,284.400 307.541 M245.678 311.600 C 245.790 311.930,246.378 313.696,246.983 315.525 C 247.588 317.354,248.153 318.780,248.239 318.694 C 248.433 318.500,246.110 311.565,245.741 311.238 C 245.593 311.107,245.565 311.270,245.678 311.600 M274.735 311.399 C 274.626 311.508,272.571 312.124,270.168 312.768 C 267.766 313.413,266.070 313.953,266.400 313.969 C 267.084 314.002,273.690 312.265,275.200 311.655 C 275.779 311.421,275.933 311.240,275.567 311.225 C 275.218 311.211,274.844 311.289,274.735 311.399 M257.200 315.200 C 255.551 315.456,255.517 315.483,256.800 315.517 C 257.570 315.537,258.920 315.405,259.800 315.223 C 261.866 314.796,259.912 314.778,257.200 315.200 M248.800 320.471 C 248.800 322.449,250.852 325.988,252.000 325.988 C 252.336 325.988,252.176 325.771,251.636 325.494 C 250.999 325.168,250.422 324.264,249.938 322.836 C 249.283 320.903,248.800 319.898,248.800 320.471 M257.000 324.817 C 254.580 325.202,253.140 325.534,253.800 325.555 C 254.912 325.591,258.721 325.086,261.300 324.561 C 263.471 324.118,262.400 325.546,256.593 330.834 C 239.825 346.102,221.135 359.908,201.200 371.750 C 192.561 376.882,191.550 377.520,193.600 376.546 C 207.891 369.756,239.601 346.937,257.000 330.923 C 265.233 323.345,265.233 323.509,257.000 324.817 M185.900 380.357 C 182.655 382.068,179.865 383.616,179.700 383.799 C 179.313 384.227,191.277 378.057,191.780 377.569 C 192.427 376.941,191.976 377.155,185.900 380.357 M172.600 387.089 C 171.500 387.667,169.970 388.268,169.200 388.424 C 168.025 388.662,167.970 388.715,168.855 388.754 C 169.785 388.795,175.200 386.583,175.200 386.162 C 175.200 385.832,174.550 386.063,172.600 387.089 " stroke="none" fill="#c1a591" fill-rule="evenodd"></path><path id="path4" d="M338.800 119.652 C 336.767 120.884,336.754 120.935,337.024 126.400 C 337.652 139.105,335.456 161.327,331.768 179.584 C 330.814 184.305,330.088 188.221,330.153 188.287 C 331.011 189.145,336.564 163.044,338.171 150.600 C 339.435 140.815,340.951 118.796,340.360 118.801 C 340.272 118.802,339.570 119.185,338.800 119.652 M70.639 142.803 C 64.177 144.740,64.576 144.249,63.177 151.991 C 61.641 160.494,61.679 160.851,63.713 157.000 C 66.687 151.369,70.833 146.390,75.800 142.485 C 77.938 140.804,77.147 140.853,70.639 142.803 M196.800 153.185 C 193.201 154.603,189.600 156.375,189.600 156.730 C 189.600 157.170,194.984 163.247,195.758 163.680 C 197.755 164.798,218.906 173.194,219.663 173.169 C 221.245 173.118,225.804 171.028,225.760 170.375 C 225.737 170.048,224.240 167.782,222.431 165.339 L 219.143 160.896 210.072 157.184 C 205.082 155.143,200.460 153.248,199.800 152.975 C 198.788 152.555,198.318 152.588,196.800 153.185 M73.091 155.678 C 67.297 162.814,65.287 178.176,68.989 187.034 L 69.522 188.310 77.061 188.575 C 81.207 188.720,85.590 188.876,86.800 188.920 C 88.805 188.993,89.011 188.920,89.128 188.101 C 89.318 186.762,88.274 186.546,80.221 186.265 C 75.227 186.090,72.897 185.860,72.564 185.507 C 71.530 184.410,70.008 176.211,70.003 171.709 C 69.999 168.157,69.158 168.758,80.800 163.995 C 95.589 157.945,95.668 157.612,81.561 160.800 C 76.693 161.900,72.437 162.800,72.103 162.800 C 71.176 162.800,71.688 160.558,73.386 157.174 C 75.095 153.769,75.007 153.319,73.091 155.678 M177.823 162.889 C 176.865 164.256,177.062 165.124,178.800 167.200 C 180.854 169.653,181.003 168.811,176.606 179.626 C 172.151 190.586,173.275 189.191,165.357 193.581 C 158.996 197.108,157.164 198.897,158.522 200.256 C 158.829 200.562,173.881 193.008,174.873 192.050 C 175.508 191.437,184.000 169.929,184.000 168.935 C 184.000 168.300,179.298 162.000,178.824 162.000 C 178.616 162.000,178.165 162.400,177.823 162.889 M194.000 174.813 C 194.000 175.041,194.440 176.095,194.978 177.156 L 195.956 179.086 201.878 181.200 C 211.345 184.580,210.706 183.663,208.201 190.261 C 207.211 192.867,206.401 195.415,206.401 195.923 C 206.399 197.489,207.281 200.440,207.707 200.298 C 208.186 200.138,214.883 183.250,214.694 182.681 C 214.399 181.796,194.000 174.040,194.000 174.813 M228.775 182.389 C 225.845 183.901,226.336 183.016,221.223 196.000 C 216.094 209.026,216.227 207.872,219.149 214.107 L 221.168 218.415 222.684 218.219 C 223.518 218.112,225.245 217.914,226.522 217.780 C 229.297 217.489,228.696 218.715,232.409 205.769 C 235.697 194.305,235.631 195.410,233.492 187.633 C 231.570 180.642,231.757 180.850,228.775 182.389 M179.358 203.366 C 178.455 205.719,178.705 205.892,189.999 210.722 C 202.090 215.893,201.417 215.450,203.619 219.683 C 205.625 223.539,206.425 224.400,208.000 224.400 C 209.568 224.400,209.586 224.491,206.799 218.333 C 203.830 211.770,205.426 212.943,192.000 207.456 C 180.040 202.567,179.706 202.459,179.358 203.366 M56.829 207.256 C 56.792 209.104,57.763 214.356,59.000 219.000 C 59.527 220.980,60.246 225.210,60.597 228.400 C 68.086 296.371,106.330 346.890,167.051 369.020 L 170.702 370.350 173.051 369.239 C 180.777 365.584,199.037 354.666,209.119 347.674 C 214.231 344.129,215.818 342.729,212.768 344.457 C 203.559 349.674,199.789 351.702,192.750 355.226 C 183.239 359.987,173.444 364.400,172.387 364.400 C 171.162 364.400,171.129 363.845,172.010 358.027 C 173.215 350.071,173.423 350.602,168.400 348.810 C 125.293 333.430,96.446 302.737,83.798 258.792 C 81.867 252.084,82.180 251.539,86.256 254.506 C 88.519 256.154,89.558 256.846,91.900 258.268 C 92.505 258.635,90.863 256.765,88.250 254.112 C 82.661 248.436,82.950 250.006,85.395 238.600 C 87.633 228.163,86.999 229.010,93.650 227.571 C 100.927 225.997,100.800 226.031,100.800 225.624 C 100.800 223.733,96.819 218.918,94.193 217.633 L 91.400 216.267 76.000 215.518 C 58.232 214.654,59.968 215.220,58.147 209.703 C 57.079 206.469,56.853 206.050,56.829 207.256 M271.635 214.938 C 273.130 218.570,274.400 224.188,274.400 227.172 L 274.400 228.640 281.568 226.220 C 291.529 222.857,291.512 222.463,281.477 224.081 C 275.047 225.118,275.409 225.300,275.087 220.865 C 274.679 215.254,272.972 211.200,271.019 211.200 C 270.099 211.200,270.100 211.211,271.635 214.938 M295.400 224.389 C 294.300 224.797,288.998 226.653,283.617 228.514 C 274.355 231.718,273.816 231.959,273.494 233.049 C 273.307 233.682,272.683 235.233,272.106 236.495 C 271.529 237.758,271.176 238.910,271.322 239.055 C 271.599 239.332,299.238 229.353,300.257 228.608 C 300.761 228.239,300.682 227.866,299.702 225.990 C 298.392 223.482,298.122 223.382,295.400 224.389 M143.167 224.160 C 143.075 224.248,134.990 226.058,125.200 228.182 C 102.050 233.205,102.000 233.216,102.000 233.547 C 102.000 233.703,103.845 235.377,106.100 237.267 C 130.618 257.821,163.022 274.354,196.513 283.396 C 202.145 284.917,202.864 284.673,199.600 282.349 C 197.693 280.992,195.987 280.204,193.200 279.394 C 175.181 274.153,143.119 260.348,144.879 258.588 C 144.985 258.482,152.705 255.600,162.036 252.184 C 184.598 243.922,184.459 243.976,184.302 243.506 C 184.111 242.934,178.834 240.846,177.515 240.821 C 176.918 240.809,167.612 243.860,156.835 247.600 C 135.372 255.048,136.305 254.804,134.600 253.428 C 132.939 252.088,132.938 252.088,143.600 248.643 C 157.926 244.014,157.486 243.818,139.427 246.781 C 125.740 249.026,127.567 249.210,121.600 244.986 C 115.156 240.425,109.163 235.487,109.287 234.841 C 109.372 234.402,113.979 233.097,126.402 229.991 C 145.985 225.096,145.200 225.322,145.200 224.573 C 145.200 224.060,143.608 223.737,143.167 224.160 M234.226 255.100 C 239.026 262.457,259.825 289.200,260.745 289.199 C 271.897 289.185,289.978 281.650,297.500 273.881 C 300.934 270.334,301.373 269.030,298.138 271.987 C 290.431 279.031,271.307 286.513,262.527 285.920 L 260.752 285.800 249.476 270.800 C 239.552 257.599,237.984 255.694,236.400 254.916 C 233.874 253.676,233.327 253.723,234.226 255.100 " stroke="none" fill="#ffffff" fill-rule="evenodd"></path></g></svg>